<svg width="92" height="36" viewBox="0 0 92 36" fill="none" xmlns="http://www.w3.org/2000/svg">
<g filter="url(#filter0_d_1_1429)">
<path d="M18.582 7.19531V24H16.1797V16.8047H6.55859V24H4.15625V7.19531H6.55859V14.4023H16.1797V7.19531H18.582ZM32.9805 18.9375H24.7188V21.6914H32.9805V24H24.7188C24.4062 24 24.1094 23.9414 23.8281 23.8242C23.5469 23.6992 23.3008 23.5352 23.0898 23.332C22.8867 23.1211 22.7227 22.875 22.5977 22.5938C22.4805 22.3125 22.4219 22.0117 22.4219 21.6914V13.8281C22.4219 13.5078 22.4805 13.207 22.5977 12.9258C22.7227 12.6445 22.8867 12.4023 23.0898 12.1992C23.3008 11.9883 23.5469 11.8242 23.8281 11.707C24.1094 11.582 24.4062 11.5195 24.7188 11.5195H30.6719C30.9922 11.5195 31.293 11.582 31.5742 11.707C31.8555 11.8242 32.0977 11.9883 32.3008 12.1992C32.5117 12.4023 32.6758 12.6445 32.793 12.9258C32.918 13.207 32.9805 13.5078 32.9805 13.8281V18.9375ZM24.7188 13.8281V16.6289H30.6719V13.8281H24.7188ZM36.5859 18.5508C36.5859 18.2305 36.6445 17.9336 36.7617 17.6602C36.8867 17.3789 37.0508 17.1328 37.2539 16.9219C37.4648 16.7109 37.7109 16.5469 37.9922 16.4297C38.2734 16.3047 38.5703 16.2422 38.8828 16.2422H44.8359V13.8281H37.3008V11.5195H44.8359C45.1562 11.5195 45.457 11.582 45.7383 11.707C46.0195 11.8242 46.2617 11.9883 46.4648 12.1992C46.6758 12.4023 46.8398 12.6445 46.957 12.9258C47.082 13.207 47.1445 13.5078 47.1445 13.8281V24H44.8359V21.8906C44.8125 22.1797 44.7344 22.4531 44.6016 22.7109C44.4688 22.9688 44.2969 23.1953 44.0859 23.3906C43.8828 23.5781 43.6484 23.7266 43.3828 23.8359C43.1172 23.9453 42.8359 24 42.5391 24H38.8828C38.5703 24 38.2734 23.9414 37.9922 23.8242C37.7109 23.6992 37.4648 23.5352 37.2539 23.332C37.0508 23.1211 36.8867 22.875 36.7617 22.5938C36.6445 22.3125 36.5859 22.0117 36.5859 21.6914V18.5508ZM38.8828 21.6914H44.8359V18.5508H38.8828V21.6914ZM50.75 13.8281C50.75 13.5078 50.8086 13.207 50.9258 12.9258C51.0508 12.6445 51.2148 12.4023 51.418 12.1992C51.6289 11.9883 51.875 11.8242 52.1562 11.707C52.4375 11.582 52.7344 11.5195 53.0469 11.5195H59.4805V6.71484H61.7891V24H59.4805V21.8906C59.457 22.1797 59.3789 22.4531 59.2461 22.7109C59.1133 22.9688 58.9414 23.1953 58.7305 23.3906C58.5273 23.5781 58.293 23.7266 58.0273 23.8359C57.7617 23.9453 57.4805 24 57.1836 24H53.0469C52.7344 24 52.4375 23.9414 52.1562 23.8242C51.875 23.6992 51.6289 23.5352 51.418 23.332C51.2148 23.1211 51.0508 22.875 50.9258 22.5938C50.8086 22.3125 50.75 22.0117 50.75 21.6914V13.8281ZM53.0469 21.6914H59.4805V13.8281H53.0469V21.6914ZM65.3828 20.4961H68.8867V24H65.3828V20.4961Z" fill="#242635"/>
</g>
<defs>
<filter id="filter0_d_1_1429" x="-2" y="0" width="98" height="44" filterUnits="userSpaceOnUse" color-interpolation-filters="sRGB">
<feFlood flood-opacity="0" result="BackgroundImageFix"/>
<feColorMatrix in="SourceAlpha" type="matrix" values="0 0 0 0 0 0 0 0 0 0 0 0 0 0 0 0 0 0 127 0" result="hardAlpha"/>
<feOffset dy="4"/>
<feGaussianBlur stdDeviation="2"/>
<feComposite in2="hardAlpha" operator="out"/>
<feColorMatrix type="matrix" values="0 0 0 0 0 0 0 0 0 0 0 0 0 0 0 0 0 0 0.25 0"/>
<feBlend mode="normal" in2="BackgroundImageFix" result="effect1_dropShadow_1_1429"/>
<feBlend mode="normal" in="SourceGraphic" in2="effect1_dropShadow_1_1429" result="shape"/>
</filter>
</defs>
</svg>
